<?xml version="1.0" encoding="UTF-8" standalone="no"?>
<!-- Generator: Adobe Illustrator 19.0.0, SVG Export Plug-In . SVG Version: 6.00 Build 0)  -->

<svg
   xmlns:dc="http://purl.org/dc/elements/1.1/"
   xmlns:cc="http://creativecommons.org/ns#"
   xmlns:rdf="http://www.w3.org/1999/02/22-rdf-syntax-ns#"
   xmlns:svg="http://www.w3.org/2000/svg"
   xmlns="http://www.w3.org/2000/svg"
   xmlns:sodipodi="http://sodipodi.sourceforge.net/DTD/sodipodi-0.dtd"
   xmlns:inkscape="http://www.inkscape.org/namespaces/inkscape"
   version="1.1"
   id="Capa_1"
   x="0px"
   y="0px"
   viewBox="0 0 59.997459 59.99746"
   xml:space="preserve"
   sodipodi:docname="bell-1.svg"
   width="59.997459"
   height="59.997459"
   inkscape:version="0.92.1 r15371"><metadata
     id="metadata55"><rdf:RDF><cc:Work
         rdf:about=""><dc:format>image/svg+xml</dc:format><dc:type
           rdf:resource="http://purl.org/dc/dcmitype/StillImage" /><dc:title></dc:title></cc:Work></rdf:RDF></metadata><defs
     id="defs53" /><sodipodi:namedview
     pagecolor="#ffffff"
     bordercolor="#666666"
     borderopacity="1"
     objecttolerance="10"
     gridtolerance="10"
     guidetolerance="10"
     inkscape:pageopacity="0"
     inkscape:pageshadow="2"
     inkscape:window-width="1366"
     inkscape:window-height="704"
     id="namedview51"
     showgrid="false"
     inkscape:zoom="8.8170406"
     inkscape:cx="1.8629851"
     inkscape:cy="29.771895"
     inkscape:window-x="0"
     inkscape:window-y="27"
     inkscape:window-maximized="1"
     inkscape:current-layer="Capa_1" /><g
     id="g6"
     style="fill:#ffffff;fill-opacity:1;stroke:none;stroke-opacity:1"
     transform="matrix(0.11718253,0,0,0.11718253,3.2407933e-5,4.9914551e-6)"><g
       id="g4"
       style="fill:#ffffff;fill-opacity:1;stroke:none;stroke-opacity:1"><path
         d="M 467.819,431.851 431.168,370.795 C 414.272,342.614 405.333,310.358 405.333,277.483 V 224 C 405.333,141.675 338.325,74.667 256,74.667 173.675,74.667 106.667,141.675 106.667,224 v 53.483 c 0,32.875 -8.939,65.131 -25.835,93.312 l -36.651,61.056 c -1.984,3.285 -2.027,7.403 -0.149,10.731 1.899,3.349 5.461,5.419 9.301,5.419 h 405.333 c 3.84,0 7.403,-2.069 9.301,-5.419 1.878,-3.329 1.836,-7.446 -0.148,-10.731 z"
         id="path2"
         style="fill:#ffffff;fill-opacity:1;stroke:none;stroke-opacity:1"
         inkscape:connector-curvature="0"
         sodipodi:nodetypes="ccssssscccsscc" /></g></g><g
     id="g12"
     style="fill:#ffffff;fill-opacity:1;stroke:none;stroke-opacity:1"
     transform="matrix(0.11718253,0,0,0.11718253,2.0258105e-6,4.9914551e-6)"><g
       id="g10"
       style="fill:#ffffff;fill-opacity:1;stroke:none;stroke-opacity:1"><path
         d="m 256,0 c -23.531,0 -42.667,19.136 -42.667,42.667 v 42.667 l 85.334,-0.001 V 42.667 C 298.667,19.136 279.531,0 256,0 Z"
         id="path8"
         style="fill:#ffffff;fill-opacity:1;stroke:none;stroke-opacity:1"
         inkscape:connector-curvature="0"
         sodipodi:nodetypes="ssccss" /></g></g><g
     id="g18"
     style="fill:#ffffff;fill-opacity:1;stroke:none;stroke-opacity:1"
     transform="matrix(0.11718253,0,0,0.11718253,-0.00245881,4.9914551e-6)"><g
       id="g16"
       style="fill:#ffffff;fill-opacity:1;stroke:none;stroke-opacity:1"><path
         d="m 302.165,431.936 h -92.288 c -4.715,8.064 -7.211,17.301 -7.211,26.731 C 202.667,488.085 226.581,512 256,512 c 29.419,0 53.333,-23.915 53.376,-53.333 0,-9.43 -2.496,-18.667 -7.211,-26.731 z"
         id="path14"
         style="fill:#ffffff;fill-opacity:1;stroke:none;stroke-opacity:1"
         inkscape:connector-curvature="0"
         sodipodi:nodetypes="cccscc" /></g></g><g
     id="g20"
     style="fill:#ffffff;fill-opacity:1;stroke:none;stroke-opacity:1"
     transform="matrix(0.11718253,0,0,0.11718253,-4.9986968,4.9914551e-6)" /><g
     id="g22"
     style="fill:#ffffff;fill-opacity:1;stroke:none;stroke-opacity:1"
     transform="matrix(0.11718253,0,0,0.11718253,-4.9986968,4.9914551e-6)" /><g
     id="g24"
     style="fill:#ffffff;fill-opacity:1;stroke:none;stroke-opacity:1"
     transform="matrix(0.11718253,0,0,0.11718253,-4.9986968,4.9914551e-6)" /><g
     id="g26"
     style="fill:#ffffff;fill-opacity:1;stroke:none;stroke-opacity:1"
     transform="matrix(0.11718253,0,0,0.11718253,-4.9986968,4.9914551e-6)" /><g
     id="g28"
     style="fill:#ffffff;fill-opacity:1;stroke:none;stroke-opacity:1"
     transform="matrix(0.11718253,0,0,0.11718253,-4.9986968,4.9914551e-6)" /><g
     id="g30"
     style="fill:#ffffff;fill-opacity:1;stroke:none;stroke-opacity:1"
     transform="matrix(0.11718253,0,0,0.11718253,-4.9986968,4.9914551e-6)" /><g
     id="g32"
     style="fill:#ffffff;fill-opacity:1;stroke:none;stroke-opacity:1"
     transform="matrix(0.11718253,0,0,0.11718253,-4.9986968,4.9914551e-6)" /><g
     id="g34"
     style="fill:#ffffff;fill-opacity:1;stroke:none;stroke-opacity:1"
     transform="matrix(0.11718253,0,0,0.11718253,-4.9986968,4.9914551e-6)" /><g
     id="g36"
     style="fill:#ffffff;fill-opacity:1;stroke:none;stroke-opacity:1"
     transform="matrix(0.11718253,0,0,0.11718253,-4.9986968,4.9914551e-6)" /><g
     id="g38"
     style="fill:#ffffff;fill-opacity:1;stroke:none;stroke-opacity:1"
     transform="matrix(0.11718253,0,0,0.11718253,-4.9986968,4.9914551e-6)" /><g
     id="g40"
     style="fill:#ffffff;fill-opacity:1;stroke:none;stroke-opacity:1"
     transform="matrix(0.11718253,0,0,0.11718253,-4.9986968,4.9914551e-6)" /><g
     id="g42"
     style="fill:#ffffff;fill-opacity:1;stroke:none;stroke-opacity:1"
     transform="matrix(0.11718253,0,0,0.11718253,-4.9986968,4.9914551e-6)" /><g
     id="g44"
     style="fill:#ffffff;fill-opacity:1;stroke:none;stroke-opacity:1"
     transform="matrix(0.11718253,0,0,0.11718253,-4.9986968,4.9914551e-6)" /><g
     id="g46"
     style="fill:#ffffff;fill-opacity:1;stroke:none;stroke-opacity:1"
     transform="matrix(0.11718253,0,0,0.11718253,-4.9986968,4.9914551e-6)" /><g
     id="g48"
     style="fill:#ffffff;fill-opacity:1;stroke:none;stroke-opacity:1"
     transform="matrix(0.11718253,0,0,0.11718253,-4.9986968,4.9914551e-6)" /></svg>