<?xml version="1.0" encoding="UTF-8" standalone="no"?>
<!-- Generator: Adobe Illustrator 16.0.0, SVG Export Plug-In . SVG Version: 6.00 Build 0)  -->

<svg
   xmlns:dc="http://purl.org/dc/elements/1.1/"
   xmlns:cc="http://creativecommons.org/ns#"
   xmlns:rdf="http://www.w3.org/1999/02/22-rdf-syntax-ns#"
   xmlns:svg="http://www.w3.org/2000/svg"
   xmlns="http://www.w3.org/2000/svg"
   xmlns:sodipodi="http://sodipodi.sourceforge.net/DTD/sodipodi-0.dtd"
   xmlns:inkscape="http://www.inkscape.org/namespaces/inkscape"
   version="1.1"
   id="Capa_1"
   x="0px"
   y="0px"
   width="100"
   height="130.17961"
   viewBox="0 0 99.999999 130.17961"
   xml:space="preserve"
   sodipodi:docname="board-1.svg"
   inkscape:version="0.92.1 r15371"><metadata
     id="metadata45"><rdf:RDF><cc:Work
         rdf:about=""><dc:format>image/svg+xml</dc:format><dc:type
           rdf:resource="http://purl.org/dc/dcmitype/StillImage" /></cc:Work></rdf:RDF></metadata><defs
     id="defs43" /><sodipodi:namedview
     pagecolor="#ffffff"
     bordercolor="#666666"
     borderopacity="1"
     objecttolerance="10"
     gridtolerance="10"
     guidetolerance="10"
     inkscape:pageopacity="0"
     inkscape:pageshadow="2"
     inkscape:window-width="1366"
     inkscape:window-height="704"
     id="namedview41"
     showgrid="false"
     inkscape:zoom="2.020907"
     inkscape:cx="-120.383"
     inkscape:cy="102.93719"
     inkscape:window-x="0"
     inkscape:window-y="27"
     inkscape:window-maximized="1"
     inkscape:current-layer="Capa_1" /><g
     id="g8"
     transform="matrix(0.27868738,0,0,0.27868738,-15.089807,0)"
     style="fill:#ffffff;fill-opacity:1"><g
       id="g6"
       style="fill:#ffffff;fill-opacity:1"><path
         d="M 397.972,30.17 H 253.808 V 20.249 C 253.808,9.066 244.742,0 233.559,0 222.376,0 213.31,9.066 213.31,20.249 V 30.17 H 69.146 c -8.284,0 -15,6.716 -15,15 v 224.026 c 0,8.284 6.716,15 15,15 H 196.5 L 87.49,436.465 c -4.822,6.734 -3.271,16.105 3.465,20.928 2.646,1.895 5.697,2.805 8.719,2.805 4.675,0 9.281,-2.18 12.209,-6.27 L 218.559,304.924 v 147.193 c 0,8.285 6.716,15 15,15 8.284,0 15,-6.715 15,-15 V 304.924 L 355.234,453.93 c 2.929,4.09 7.535,6.268 12.209,6.268 3.022,0 6.074,-0.91 8.719,-2.803 6.736,-4.824 8.287,-14.193 3.466,-20.93 L 270.617,284.197 h 127.354 c 8.284,0 15,-6.717 15,-15 V 45.17 c 10e-4,-8.284 -6.715,-15 -14.999,-15 z m -15,224.027 H 84.146 V 60.17 h 298.825 z"
         id="path2"
         inkscape:connector-curvature="0"
         style="fill:#ffffff;fill-opacity:1" /><path
         d="m 150.202,178.82 c 0.264,0 0.531,-0.012 0.799,-0.035 9.19,-0.807 18.223,-2.256 27.149,-4.356 -16.594,11.629 -29.254,20.563 -29.531,20.759 -3.886,2.743 -4.974,8.033 -2.484,12.087 2.49,4.054 7.701,5.477 11.904,3.25 l 95.854,-50.746 c -8.265,10.231 -16.257,20.818 -21.237,29.119 -1.926,3.209 -1.668,7.275 0.646,10.216 2.314,2.941 6.204,4.147 9.777,3.031 3.477,-1.086 7.355,-2.797 11.311,-4.818 l -2.965,5.391 c -1.647,2.995 -1.46,6.663 0.484,9.474 1.697,2.457 4.482,3.89 7.416,3.89 0.424,0 0.85,-0.03 1.276,-0.091 0.796,-0.113 19.612,-2.817 29.954,-5.638 4.805,-1.311 7.638,-6.268 6.327,-11.073 -1.311,-4.806 -6.269,-7.639 -11.073,-6.328 -2.668,0.728 -6.089,1.464 -9.609,2.145 l 10.866,-19.758 c 2.042,-3.714 1.225,-8.349 -1.969,-11.138 -3.06,-2.674 -7.509,-2.958 -10.873,-0.753 12.446,-14.928 24.017,-27.629 24.224,-27.856 2.957,-3.238 3.155,-8.134 0.471,-11.602 -2.686,-3.467 -7.475,-4.5 -11.35,-2.449 l -14.929,7.903 c 3.278,-2.972 6.069,-5.798 9.108,-8.875 4.462,-4.516 9.518,-9.635 17.775,-16.863 1.104,-0.952 2.2,-1.901 3.287,-2.843 3.752,-3.252 4.17,-8.925 0.935,-12.692 -3.236,-3.767 -8.908,-4.208 -12.688,-0.988 -1.13,0.963 -2.248,1.934 -3.36,2.907 0,0 -10e-4,0 -10e-4,10e-4 -38.217,32.998 -80.375,65.641 -138.272,70.726 -4.961,0.436 -8.63,4.812 -8.194,9.772 0.411,4.695 4.348,8.231 8.972,8.231 z"
         id="path4"
         inkscape:connector-curvature="0"
         style="fill:#ffffff;fill-opacity:1" /></g></g><g
     id="g10"
     transform="matrix(0.27868738,0,0,0.27868738,-15.089807,0)"
     style="fill:#ffffff;fill-opacity:1" /><g
     id="g12"
     transform="matrix(0.27868738,0,0,0.27868738,-15.089807,0)"
     style="fill:#ffffff;fill-opacity:1" /><g
     id="g14"
     transform="matrix(0.27868738,0,0,0.27868738,-15.089807,0)"
     style="fill:#ffffff;fill-opacity:1" /><g
     id="g16"
     transform="matrix(0.27868738,0,0,0.27868738,-15.089807,0)"
     style="fill:#ffffff;fill-opacity:1" /><g
     id="g18"
     transform="matrix(0.27868738,0,0,0.27868738,-15.089807,0)"
     style="fill:#ffffff;fill-opacity:1" /><g
     id="g20"
     transform="matrix(0.27868738,0,0,0.27868738,-15.089807,0)"
     style="fill:#ffffff;fill-opacity:1" /><g
     id="g22"
     transform="matrix(0.27868738,0,0,0.27868738,-15.089807,0)"
     style="fill:#ffffff;fill-opacity:1" /><g
     id="g24"
     transform="matrix(0.27868738,0,0,0.27868738,-15.089807,0)"
     style="fill:#ffffff;fill-opacity:1" /><g
     id="g26"
     transform="matrix(0.27868738,0,0,0.27868738,-15.089807,0)"
     style="fill:#ffffff;fill-opacity:1" /><g
     id="g28"
     transform="matrix(0.27868738,0,0,0.27868738,-15.089807,0)"
     style="fill:#ffffff;fill-opacity:1" /><g
     id="g30"
     transform="matrix(0.27868738,0,0,0.27868738,-15.089807,0)"
     style="fill:#ffffff;fill-opacity:1" /><g
     id="g32"
     transform="matrix(0.27868738,0,0,0.27868738,-15.089807,0)"
     style="fill:#ffffff;fill-opacity:1" /><g
     id="g34"
     transform="matrix(0.27868738,0,0,0.27868738,-15.089807,0)"
     style="fill:#ffffff;fill-opacity:1" /><g
     id="g36"
     transform="matrix(0.27868738,0,0,0.27868738,-15.089807,0)"
     style="fill:#ffffff;fill-opacity:1" /><g
     id="g38"
     transform="matrix(0.27868738,0,0,0.27868738,-15.089807,0)"
     style="fill:#ffffff;fill-opacity:1" /></svg>