<?xml version="1.0" encoding="UTF-8" standalone="no"?>
<!-- Generator: Adobe Illustrator 19.0.0, SVG Export Plug-In . SVG Version: 6.00 Build 0)  -->

<svg
   xmlns:dc="http://purl.org/dc/elements/1.1/"
   xmlns:cc="http://creativecommons.org/ns#"
   xmlns:rdf="http://www.w3.org/1999/02/22-rdf-syntax-ns#"
   xmlns:svg="http://www.w3.org/2000/svg"
   xmlns="http://www.w3.org/2000/svg"
   xmlns:sodipodi="http://sodipodi.sourceforge.net/DTD/sodipodi-0.dtd"
   xmlns:inkscape="http://www.inkscape.org/namespaces/inkscape"
   version="1.1"
   id="Capa_1"
   x="0px"
   y="0px"
   viewBox="0 0 50 51.788956"
   xml:space="preserve"
   sodipodi:docname="search-1.svg"
   width="50"
   height="51.788956"
   inkscape:version="0.92.1 r15371"><metadata
     id="metadata39"><rdf:RDF><cc:Work
         rdf:about=""><dc:format>image/svg+xml</dc:format><dc:type
           rdf:resource="http://purl.org/dc/dcmitype/StillImage" /></cc:Work></rdf:RDF></metadata><defs
     id="defs37" /><sodipodi:namedview
     pagecolor="#ffffff"
     bordercolor="#666666"
     borderopacity="1"
     objecttolerance="10"
     gridtolerance="10"
     guidetolerance="10"
     inkscape:pageopacity="0"
     inkscape:pageshadow="2"
     inkscape:window-width="1366"
     inkscape:window-height="704"
     id="namedview35"
     showgrid="false"
     inkscape:zoom="4.1428221"
     inkscape:cx="-21.501415"
     inkscape:cy="28.483"
     inkscape:window-x="0"
     inkscape:window-y="27"
     inkscape:window-maximized="1"
     inkscape:current-layer="Capa_1" /><path
     d="M 49.239783,47.171534 36.913927,34.352026 C 40.083121,30.584631 41.819542,25.844477 41.819542,20.909771 41.819542,9.3803046 32.439237,0 20.909771,0 9.380305,0 0,9.3803046 0,20.909771 c 0,11.529466 9.380305,20.909771 20.909771,20.909771 4.328322,0 8.453002,-1.305497 11.97948,-3.783759 l 12.419495,12.916783 c 0.519108,0.539109 1.217312,0.836391 1.965518,0.836391 0.708205,0 1.380045,-0.270009 1.890062,-0.760934 1.083671,-1.042761 1.118218,-2.771908 0.07546,-3.856489 z M 20.909771,5.4547226 c 8.522095,0 15.455048,6.9329534 15.455048,15.4550484 0,8.522095 -6.932953,15.455048 -15.455048,15.455048 -8.522096,0 -15.4550482,-6.932953 -15.4550482,-15.455048 0,-8.522095 6.9329522,-15.4550484 15.4550482,-15.4550484 z"
     id="path2"
     inkscape:connector-curvature="0"
     style="stroke-width:0.90912044;fill:#ffffff;fill-opacity:1" /><g
     id="g4"
     transform="matrix(0.90912047,0,0,0.90912047,-0.89457454,0)"
     style="fill:#ffffff;fill-opacity:1" /><g
     id="g6"
     transform="matrix(0.90912047,0,0,0.90912047,-0.89457454,0)"
     style="fill:#ffffff;fill-opacity:1" /><g
     id="g8"
     transform="matrix(0.90912047,0,0,0.90912047,-0.89457454,0)"
     style="fill:#ffffff;fill-opacity:1" /><g
     id="g10"
     transform="matrix(0.90912047,0,0,0.90912047,-0.89457454,0)"
     style="fill:#ffffff;fill-opacity:1" /><g
     id="g12"
     transform="matrix(0.90912047,0,0,0.90912047,-0.89457454,0)"
     style="fill:#ffffff;fill-opacity:1" /><g
     id="g14"
     transform="matrix(0.90912047,0,0,0.90912047,-0.89457454,0)"
     style="fill:#ffffff;fill-opacity:1" /><g
     id="g16"
     transform="matrix(0.90912047,0,0,0.90912047,-0.89457454,0)"
     style="fill:#ffffff;fill-opacity:1" /><g
     id="g18"
     transform="matrix(0.90912047,0,0,0.90912047,-0.89457454,0)"
     style="fill:#ffffff;fill-opacity:1" /><g
     id="g20"
     transform="matrix(0.90912047,0,0,0.90912047,-0.89457454,0)"
     style="fill:#ffffff;fill-opacity:1" /><g
     id="g22"
     transform="matrix(0.90912047,0,0,0.90912047,-0.89457454,0)"
     style="fill:#ffffff;fill-opacity:1" /><g
     id="g24"
     transform="matrix(0.90912047,0,0,0.90912047,-0.89457454,0)"
     style="fill:#ffffff;fill-opacity:1" /><g
     id="g26"
     transform="matrix(0.90912047,0,0,0.90912047,-0.89457454,0)"
     style="fill:#ffffff;fill-opacity:1" /><g
     id="g28"
     transform="matrix(0.90912047,0,0,0.90912047,-0.89457454,0)"
     style="fill:#ffffff;fill-opacity:1" /><g
     id="g30"
     transform="matrix(0.90912047,0,0,0.90912047,-0.89457454,0)"
     style="fill:#ffffff;fill-opacity:1" /><g
     id="g32"
     transform="matrix(0.90912047,0,0,0.90912047,-0.89457454,0)"
     style="fill:#ffffff;fill-opacity:1" /></svg>