<?xml version="1.0" encoding="UTF-8" standalone="no"?>
<!-- Generator: Adobe Illustrator 19.0.0, SVG Export Plug-In . SVG Version: 6.00 Build 0)  -->

<svg
   xmlns:dc="http://purl.org/dc/elements/1.1/"
   xmlns:cc="http://creativecommons.org/ns#"
   xmlns:rdf="http://www.w3.org/1999/02/22-rdf-syntax-ns#"
   xmlns:svg="http://www.w3.org/2000/svg"
   xmlns="http://www.w3.org/2000/svg"
   xmlns:sodipodi="http://sodipodi.sourceforge.net/DTD/sodipodi-0.dtd"
   xmlns:inkscape="http://www.inkscape.org/namespaces/inkscape"
   version="1.1"
   id="Capa_1"
   x="0px"
   y="0px"
   viewBox="0 0 157.29776 157.29778"
   xml:space="preserve"
   sodipodi:docname="info-1.svg"
   width="157.29778"
   height="157.29778"
   inkscape:version="0.92.1 r15371"><metadata
     id="metadata41"><rdf:RDF><cc:Work
         rdf:about=""><dc:format>image/svg+xml</dc:format><dc:type
           rdf:resource="http://purl.org/dc/dcmitype/StillImage" /></cc:Work></rdf:RDF></metadata><defs
     id="defs39" /><sodipodi:namedview
     pagecolor="#ffffff"
     bordercolor="#666666"
     borderopacity="1"
     objecttolerance="10"
     gridtolerance="10"
     guidetolerance="10"
     inkscape:pageopacity="0"
     inkscape:pageshadow="2"
     inkscape:window-width="1366"
     inkscape:window-height="704"
     id="namedview37"
     showgrid="false"
     inkscape:zoom="2.1151312"
     inkscape:cx="-49.397289"
     inkscape:cy="38.494429"
     inkscape:window-x="0"
     inkscape:window-y="27"
     inkscape:window-maximized="1"
     inkscape:current-layer="Capa_1" /><g
     id="g4"
     transform="matrix(0.70995355,0,0,0.70995355,101.32715,53.006019)"
     style="fill:#ffffff;fill-opacity:1"><path
       d="m -8.7698059,79.866579 -1.5590001,6.373 c -4.677,1.846 -8.413,3.251 -11.195,4.217 -2.785,0.969 -6.021,1.451 -9.708,1.451 -5.662,0 -10.066,-1.387 -13.207,-4.142 -3.141,-2.766 -4.712,-6.271 -4.712,-10.523 0,-1.646 0.114,-3.339 0.351,-5.064 0.239,-1.727 0.619,-3.672 1.139,-5.846 l 5.845,-20.688 c 0.52,-1.981 0.962,-3.858 1.316,-5.633 0.359,-1.764 0.532,-3.387 0.532,-4.848 0,-2.642 -0.547,-4.49 -1.636,-5.529 -1.089,-1.036 -3.167,-1.562 -6.252,-1.562 -1.511,0 -3.064,0.242 -4.647,0.71 -1.59,0.47 -2.949,0.924 -4.09,1.346 l 1.563,-6.378 c 3.829,-1.559 7.489,-2.894 10.99,-4.002 3.501,-1.111 6.809,-1.667 9.938,-1.667 5.623,0 9.962,1.359 13.009,4.077 3.047,2.72 4.57,6.246 4.57,10.591 0,0.899 -0.1,2.483 -0.315,4.747 -0.21,2.269 -0.601,4.348 -1.171,6.239 l -5.82,20.605 c -0.477,1.655 -0.906,3.547 -1.279,5.676 -0.385,2.115 -0.569,3.731 -0.569,4.815 0,2.736 0.61,4.604 1.833,5.597 1.232,0.993 3.354,1.487 6.368,1.487 1.415,0 3.025,-0.251 4.814,-0.744 1.784,-0.493 3.0850001,-0.926 3.8920001,-1.305 z m 1.476,-86.5059998 c 0,3.59 -1.353,6.65600004 -4.0720001,9.177 -2.712,2.53 -5.98,3.796 -9.803,3.796 -3.835,0 -7.111,-1.266 -9.854,-3.796 -2.738,-2.52199996 -4.11,-5.587 -4.11,-9.177 0,-3.5830002 1.372,-6.6540002 4.11,-9.2070002 2.738,-2.549 6.02,-3.823 9.854,-3.823 3.822,0 7.091,1.277 9.803,3.823 2.7210001,2.553 4.0720001,5.625 4.0720001,9.2070002 z"
       id="path2"
       inkscape:connector-curvature="0"
       style="fill:#ffffff;fill-opacity:1" /></g><g
     id="g6"
     transform="matrix(1.0142194,0,0,1.0142194,94.471037,58.591595)" /><g
     id="g8"
     transform="matrix(1.0142194,0,0,1.0142194,94.471037,58.591595)" /><g
     id="g10"
     transform="matrix(1.0142194,0,0,1.0142194,94.471037,58.591595)" /><g
     id="g12"
     transform="matrix(1.0142194,0,0,1.0142194,94.471037,58.591595)" /><g
     id="g14"
     transform="matrix(1.0142194,0,0,1.0142194,94.471037,58.591595)" /><g
     id="g16"
     transform="matrix(1.0142194,0,0,1.0142194,94.471037,58.591595)" /><g
     id="g18"
     transform="matrix(1.0142194,0,0,1.0142194,94.471037,58.591595)" /><g
     id="g20"
     transform="matrix(1.0142194,0,0,1.0142194,94.471037,58.591595)" /><g
     id="g22"
     transform="matrix(1.0142194,0,0,1.0142194,94.471037,58.591595)" /><g
     id="g24"
     transform="matrix(1.0142194,0,0,1.0142194,94.471037,58.591595)" /><g
     id="g26"
     transform="matrix(1.0142194,0,0,1.0142194,94.471037,58.591595)" /><g
     id="g28"
     transform="matrix(1.0142194,0,0,1.0142194,94.471037,58.591595)" /><g
     id="g30"
     transform="matrix(1.0142194,0,0,1.0142194,94.471037,58.591595)" /><g
     id="g32"
     transform="matrix(1.0142194,0,0,1.0142194,94.471037,58.591595)" /><g
     id="g34"
     transform="matrix(1.0142194,0,0,1.0142194,94.471037,58.591595)" /><circle
     style="fill:none;fill-opacity:1;stroke:#ffffff;stroke-width:15;stroke-miterlimit:4;stroke-dasharray:none;stroke-opacity:1"
     id="path4518"
     cx="78.648888"
     cy="78.648888"
     r="71.148888" /></svg>